STARTFONT 2.1
FONT -Monotype-Bembo-Bold-R-Normal--12-120-72-72-P-59-ISO8859-1
SIZE 12 72 72
FONTBOUNDINGBOX 16 15 -3 -3

STARTPROPERTIES 22
FOUNDRY "Monotype"
FAMILY_NAME "Bembo"
WEIGHT_NAME "Bold"
SLANT "R"
SETWIDTH_NAME "Normal"
ADD_STYLE_NAME ""
PIXEL_SIZE 12
POINT_SIZE 120
RESOLUTION_X 72
RESOLUTION_Y 72
SPACING "P"
AVERAGE_WIDTH 59
CHARSET_REGISTRY "ISO8859"
CHARSET_ENCODING "1"
FULL_NAME "Bembo-Bold"
COPYRIGHT "Copyright (c) 1991 The Monotype Corporation plc."
WEIGHT 10
X_HEIGHT 5
QUAD_WIDTH 7
DEFAULT_CHAR 32
FONT_DESCENT 3
FONT_ASCENT 10
ENDPROPERTIES

CHARS 190

STARTCHAR space
ENCODING 32
SWIDTH 278 0
DWIDTH 3 0
BBX 1 1 0 0
BITMAP
00
ENDCHAR

STARTCHAR exclam
ENCODING 33
SWIDTH 313 0
DWIDTH 4 0
BBX 2 8 1 0
BITMAP
C0
C0
C0
80
80
00
C0
C0
ENDCHAR

STARTCHAR quotedbl
ENCODING 34
SWIDTH 552 0
DWIDTH 7 0
BBX 5 4 1 4
BITMAP
D8
D8
D8
90
ENDCHAR

STARTCHAR numbersign
ENCODING 35
SWIDTH 668 0
DWIDTH 8 0
BBX 7 8 0 0
BITMAP
36
26
FE
FE
FE
FE
CC
D8
ENDCHAR

STARTCHAR dollar
ENCODING 36
SWIDTH 479 0
DWIDTH 6 0
BBX 6 9 0 -1
BITMAP
78
EC
E0
60
38
AC
AC
78
20
ENDCHAR

STARTCHAR percent
ENCODING 37
SWIDTH 896 0
DWIDTH 11 0
BBX 10 8 0 0
BITMAP
E100
A200
A600
E480
0940
1940
1140
2080
ENDCHAR

STARTCHAR ampersand
ENCODING 38
SWIDTH 750 0
DWIDTH 9 0
BBX 8 8 1 0
BITMAP
78
68
68
3B
DA
CE
C4
7F
ENDCHAR

STARTCHAR quoteright
ENCODING 39
SWIDTH 313 0
DWIDTH 4 0
BBX 2 4 1 4
BITMAP
C0
C0
40
80
ENDCHAR

STARTCHAR parenleft
ENCODING 40
SWIDTH 354 0
DWIDTH 4 0
BBX 3 11 1 -3
BITMAP
20
40
40
C0
C0
C0
C0
C0
40
40
20
ENDCHAR

STARTCHAR parenright
ENCODING 41
SWIDTH 344 0
DWIDTH 4 0
BBX 3 11 0 -3
BITMAP
80
40
40
60
60
60
60
60
40
40
80
ENDCHAR

STARTCHAR asterisk
ENCODING 42
SWIDTH 521 0
DWIDTH 6 0
BBX 5 5 0 3
BITMAP
20
20
F8
30
50
ENDCHAR

STARTCHAR plus
ENCODING 43
SWIDTH 667 0
DWIDTH 8 0
BBX 7 7 0 1
BITMAP
10
10
10
FE
10
10
10
ENDCHAR

STARTCHAR comma
ENCODING 44
SWIDTH 313 0
DWIDTH 4 0
BBX 2 4 1 -2
BITMAP
C0
C0
40
80
ENDCHAR

STARTCHAR minus
ENCODING 45
SWIDTH 667 0
DWIDTH 8 0
BBX 6 1 1 3
BITMAP
FC
ENDCHAR

STARTCHAR period
ENCODING 46
SWIDTH 313 0
DWIDTH 4 0
BBX 2 2 1 0
BITMAP
C0
C0
ENDCHAR

STARTCHAR slash
ENCODING 47
SWIDTH 531 0
DWIDTH 4 0
BBX 4 11 0 -3
BITMAP
30
30
20
20
60
60
40
40
C0
C0
80
ENDCHAR

STARTCHAR zero
ENCODING 48
SWIDTH 500 0
DWIDTH 6 0
BBX 5 8 0 0
BITMAP
70
D8
D8
D8
D8
D8
58
70
ENDCHAR

STARTCHAR one
ENCODING 49
SWIDTH 500 0
DWIDTH 6 0
BBX 4 8 1 0
BITMAP
20
60
E0
60
60
60
60
F0
ENDCHAR

STARTCHAR two
ENCODING 50
SWIDTH 500 0
DWIDTH 6 0
BBX 5 8 0 0
BITMAP
70
98
18
18
30
68
78
F8
ENDCHAR

STARTCHAR three
ENCODING 51
SWIDTH 500 0
DWIDTH 6 0
BBX 5 8 0 0
BITMAP
70
B0
30
70
18
18
98
F0
ENDCHAR

STARTCHAR four
ENCODING 52
SWIDTH 500 0
DWIDTH 6 0
BBX 6 8 0 0
BITMAP
18
18
38
58
D8
FC
18
18
ENDCHAR

STARTCHAR five
ENCODING 53
SWIDTH 500 0
DWIDTH 6 0
BBX 4 8 1 0
BITMAP
F0
F0
80
E0
F0
30
B0
E0
ENDCHAR

STARTCHAR six
ENCODING 54
SWIDTH 500 0
DWIDTH 6 0
BBX 5 8 1 0
BITMAP
30
60
C0
F0
D8
D8
D8
70
ENDCHAR

STARTCHAR seven
ENCODING 55
SWIDTH 500 0
DWIDTH 6 0
BBX 6 8 0 0
BITMAP
FC
FC
88
18
10
30
60
E0
ENDCHAR

STARTCHAR eight
ENCODING 56
SWIDTH 500 0
DWIDTH 6 0
BBX 6 8 0 0
BITMAP
78
CC
CC
F8
5C
CC
CC
78
ENDCHAR

STARTCHAR nine
ENCODING 57
SWIDTH 500 0
DWIDTH 6 0
BBX 5 8 0 0
BITMAP
70
D8
D8
D8
78
18
30
60
ENDCHAR

STARTCHAR colon
ENCODING 58
SWIDTH 313 0
DWIDTH 4 0
BBX 2 5 1 0
BITMAP
C0
C0
00
C0
C0
ENDCHAR

STARTCHAR semicolon
ENCODING 59
SWIDTH 313 0
DWIDTH 4 0
BBX 2 7 1 -2
BITMAP
C0
C0
00
C0
C0
40
80
ENDCHAR

STARTCHAR less
ENCODING 60
SWIDTH 667 0
DWIDTH 8 0
BBX 6 6 1 1
BITMAP
0C
38
E0
E0
38
0C
ENDCHAR

STARTCHAR equal
ENCODING 61
SWIDTH 667 0
DWIDTH 8 0
BBX 6 3 1 2
BITMAP
FC
00
FC
ENDCHAR

STARTCHAR greater
ENCODING 62
SWIDTH 667 0
DWIDTH 8 0
BBX 6 6 1 1
BITMAP
C0
70
1C
1C
70
C0
ENDCHAR

STARTCHAR question
ENCODING 63
SWIDTH 365 0
DWIDTH 4 0
BBX 3 8 1 0
BITMAP
C0
E0
20
E0
E0
80
C0
C0
ENDCHAR

STARTCHAR at
ENCODING 64
SWIDTH 927 0
DWIDTH 11 0
BBX 10 11 1 -3
BITMAP
1F00
2080
4740
DB40
9240
B640
BEC0
B740
4080
6180
1E00
ENDCHAR

STARTCHAR A
ENCODING 65
SWIDTH 740 0
DWIDTH 9 0
BBX 9 8 0 0
BITMAP
1800
1C00
2C00
2E00
3E00
4600
4300
E780
ENDCHAR

STARTCHAR B
ENCODING 66
SWIDTH 698 0
DWIDTH 8 0
BBX 8 8 0 0
BITMAP
FE
63
63
7E
63
63
63
FE
ENDCHAR

STARTCHAR C
ENCODING 67
SWIDTH 740 0
DWIDTH 9 0
BBX 8 8 1 0
BITMAP
1F
61
C1
C0
C0
C1
63
3F
ENDCHAR

STARTCHAR D
ENCODING 68
SWIDTH 823 0
DWIDTH 10 0
BBX 9 8 0 0
BITMAP
FE00
6300
6180
6180
6180
6180
6300
FE00
ENDCHAR

STARTCHAR E
ENCODING 69
SWIDTH 646 0
DWIDTH 8 0
BBX 7 8 0 0
BITMAP
FE
62
60
7E
62
60
62
FE
ENDCHAR

STARTCHAR F
ENCODING 70
SWIDTH 594 0
DWIDTH 7 0
BBX 6 8 0 0
BITMAP
FC
64
60
7C
64
60
60
F0
ENDCHAR

STARTCHAR G
ENCODING 71
SWIDTH 781 0
DWIDTH 9 0
BBX 9 8 0 0
BITMAP
3F00
6100
C100
C000
C780
C300
6300
3E00
ENDCHAR

STARTCHAR H
ENCODING 72
SWIDTH 833 0
DWIDTH 10 0
BBX 10 8 0 0
BITMAP
F3C0
6180
6180
7F80
6180
6180
6180
F3C0
ENDCHAR

STARTCHAR I
ENCODING 73
SWIDTH 365 0
DWIDTH 4 0
BBX 4 8 0 0
BITMAP
F0
60
60
60
60
60
60
F0
ENDCHAR

STARTCHAR J
ENCODING 74
SWIDTH 344 0
DWIDTH 4 0
BBX 6 11 -1 -3
BITMAP
3C
18
18
18
18
18
18
18
18
D0
E0
ENDCHAR

STARTCHAR K
ENCODING 75
SWIDTH 740 0
DWIDTH 9 0
BBX 9 8 0 0
BITMAP
F700
6200
6400
7800
6C00
6600
6300
F780
ENDCHAR

STARTCHAR L
ENCODING 76
SWIDTH 604 0
DWIDTH 7 0
BBX 7 8 0 0
BITMAP
F0
60
60
60
60
60
62
FC
ENDCHAR

STARTCHAR M
ENCODING 77
SWIDTH 927 0
DWIDTH 11 0
BBX 11 8 0 0
BITMAP
71C0
71C0
71C0
5AC0
5AC0
4CC0
4CC0
E9E0
ENDCHAR

STARTCHAR N
ENCODING 78
SWIDTH 813 0
DWIDTH 10 0
BBX 9 8 0 0
BITMAP
E380
7100
7900
5D00
4F00
4700
4300
E100
ENDCHAR

STARTCHAR O
ENCODING 79
SWIDTH 844 0
DWIDTH 10 0
BBX 9 8 1 0
BITMAP
3E00
6300
C180
C180
C180
C180
6300
3E00
ENDCHAR

STARTCHAR P
ENCODING 80
SWIDTH 646 0
DWIDTH 8 0
BBX 7 8 0 0
BITMAP
FC
66
66
66
7C
60
60
F0
ENDCHAR

STARTCHAR Q
ENCODING 81
SWIDTH 844 0
DWIDTH 10 0
BBX 9 11 1 -3
BITMAP
3E00
6300
C180
C180
C180
C180
6300
3E00
0E00
0700
0380
ENDCHAR

STARTCHAR R
ENCODING 82
SWIDTH 771 0
DWIDTH 9 0
BBX 9 8 0 0
BITMAP
FC00
6600
6600
6400
7C00
6E00
6600
F380
ENDCHAR

STARTCHAR S
ENCODING 83
SWIDTH 563 0
DWIDTH 7 0
BBX 5 8 1 0
BITMAP
78
C8
E0
70
38
98
98
F0
ENDCHAR

STARTCHAR T
ENCODING 84
SWIDTH 729 0
DWIDTH 9 0
BBX 8 8 0 0
BITMAP
FF
99
18
18
18
18
18
3C
ENDCHAR

STARTCHAR U
ENCODING 85
SWIDTH 771 0
DWIDTH 9 0
BBX 9 8 0 0
BITMAP
F380
6100
6100
6100
6100
6100
6300
3E00
ENDCHAR

STARTCHAR V
ENCODING 86
SWIDTH 750 0
DWIDTH 9 0
BBX 9 8 0 0
BITMAP
F380
6100
6300
3200
3200
1C00
1C00
0C00
ENDCHAR

STARTCHAR W
ENCODING 87
SWIDTH 1000 0
DWIDTH 12 0
BBX 12 8 0 0
BITMAP
EFF0
6D20
6520
3640
3340
1FC0
1D80
0980
ENDCHAR

STARTCHAR X
ENCODING 88
SWIDTH 802 0
DWIDTH 10 0
BBX 9 8 0 0
BITMAP
FB80
7300
3E00
1C00
1E00
3700
6300
E780
ENDCHAR

STARTCHAR Y
ENCODING 89
SWIDTH 750 0
DWIDTH 9 0
BBX 9 8 0 0
BITMAP
FB80
7100
3B00
1A00
0C00
0C00
0C00
1E00
ENDCHAR

STARTCHAR Z
ENCODING 90
SWIDTH 750 0
DWIDTH 9 0
BBX 7 8 1 0
BITMAP
FE
8E
1C
18
30
72
E2
FE
ENDCHAR

STARTCHAR bracketleft
ENCODING 91
SWIDTH 365 0
DWIDTH 4 0
BBX 3 11 1 -3
BITMAP
E0
C0
C0
C0
C0
C0
C0
C0
C0
C0
E0
ENDCHAR

STARTCHAR backslash
ENCODING 92
SWIDTH 531 0
DWIDTH 6 0
BBX 6 8 0 0
BITMAP
C0
E0
60
70
30
38
18
1C
ENDCHAR

STARTCHAR bracketright
ENCODING 93
SWIDTH 365 0
DWIDTH 4 0
BBX 3 11 0 -3
BITMAP
E0
60
60
60
60
60
60
60
60
60
E0
ENDCHAR

STARTCHAR asciicircum
ENCODING 94
SWIDTH 583 0
DWIDTH 7 0
BBX 5 4 1 4
BITMAP
20
70
50
88
ENDCHAR

STARTCHAR underscore
ENCODING 95
SWIDTH 500 0
DWIDTH 6 0
BBX 6 1 0 -3
BITMAP
FC
ENDCHAR

STARTCHAR quoteleft
ENCODING 96
SWIDTH 313 0
DWIDTH 4 0
BBX 2 4 1 4
BITMAP
40
80
C0
C0
ENDCHAR

STARTCHAR a
ENCODING 97
SWIDTH 479 0
DWIDTH 6 0
BBX 6 5 0 0
BITMAP
70
D8
38
D8
FC
ENDCHAR

STARTCHAR b
ENCODING 98
SWIDTH 573 0
DWIDTH 7 0
BBX 7 8 0 0
BITMAP
E0
60
60
7C
66
66
66
7C
ENDCHAR

STARTCHAR c
ENCODING 99
SWIDTH 490 0
DWIDTH 6 0
BBX 5 5 1 0
BITMAP
78
C8
C0
C8
70
ENDCHAR

STARTCHAR d
ENCODING 100
SWIDTH 573 0
DWIDTH 7 0
BBX 7 8 0 0
BITMAP
04
1C
0C
7C
CC
CC
CC
7E
ENDCHAR

STARTCHAR e
ENCODING 101
SWIDTH 479 0
DWIDTH 6 0
BBX 5 5 0 0
BITMAP
78
F8
C0
C8
70
ENDCHAR

STARTCHAR f
ENCODING 102
SWIDTH 323 0
DWIDTH 4 0
BBX 6 8 0 0
BITMAP
1C
24
60
F0
60
60
60
F0
ENDCHAR

STARTCHAR g
ENCODING 103
SWIDTH 552 0
DWIDTH 7 0
BBX 6 8 0 -3
BITMAP
7C
DC
D8
78
C0
FC
FC
F8
ENDCHAR

STARTCHAR h
ENCODING 104
SWIDTH 563 0
DWIDTH 7 0
BBX 7 8 0 0
BITMAP
E0
60
60
7C
6C
6C
6C
FE
ENDCHAR

STARTCHAR i
ENCODING 105
SWIDTH 292 0
DWIDTH 4 0
BBX 4 8 -1 0
BITMAP
60
60
00
E0
60
60
60
F0
ENDCHAR

STARTCHAR j
ENCODING 106
SWIDTH 281 0
DWIDTH 3 0
BBX 4 11 0 -3
BITMAP
30
30
00
70
30
30
30
30
30
B0
E0
ENDCHAR

STARTCHAR k
ENCODING 107
SWIDTH 542 0
DWIDTH 7 0
BBX 6 8 0 0
BITMAP
E0
60
60
6C
68
78
7C
FC
ENDCHAR

STARTCHAR l
ENCODING 108
SWIDTH 271 0
DWIDTH 3 0
BBX 4 8 0 0
BITMAP
E0
60
60
60
60
60
60
F0
ENDCHAR

STARTCHAR m
ENCODING 109
SWIDTH 927 0
DWIDTH 11 0
BBX 12 5 0 0
BITMAP
FFE0
6660
6660
6660
FFF0
ENDCHAR

STARTCHAR n
ENCODING 110
SWIDTH 573 0
DWIDTH 7 0
BBX 7 5 0 0
BITMAP
EC
7C
6C
6C
FE
ENDCHAR

STARTCHAR o
ENCODING 111
SWIDTH 573 0
DWIDTH 7 0
BBX 6 5 0 0
BITMAP
78
CC
CC
CC
78
ENDCHAR

STARTCHAR p
ENCODING 112
SWIDTH 573 0
DWIDTH 7 0
BBX 7 8 0 -3
BITMAP
FC
66
66
66
7C
60
60
F0
ENDCHAR

STARTCHAR q
ENCODING 113
SWIDTH 573 0
DWIDTH 7 0
BBX 7 8 0 -3
BITMAP
7C
CC
CC
CC
7C
0C
0C
1E
ENDCHAR

STARTCHAR r
ENCODING 114
SWIDTH 396 0
DWIDTH 5 0
BBX 5 5 0 0
BITMAP
F8
60
60
60
F0
ENDCHAR

STARTCHAR s
ENCODING 115
SWIDTH 375 0
DWIDTH 5 0
BBX 4 5 0 0
BITMAP
F0
D0
F0
B0
F0
ENDCHAR

STARTCHAR t
ENCODING 116
SWIDTH 344 0
DWIDTH 4 0
BBX 5 6 0 0
BITMAP
20
F0
60
60
78
60
ENDCHAR

STARTCHAR u
ENCODING 117
SWIDTH 573 0
DWIDTH 7 0
BBX 6 5 0 0
BITMAP
F8
D8
D8
D8
FC
ENDCHAR

STARTCHAR v
ENCODING 118
SWIDTH 521 0
DWIDTH 6 0
BBX 6 5 0 0
BITMAP
EC
68
68
30
30
ENDCHAR

STARTCHAR w
ENCODING 119
SWIDTH 781 0
DWIDTH 9 0
BBX 9 5 0 0
BITMAP
ED80
EC80
6F00
7700
3600
ENDCHAR

STARTCHAR x
ENCODING 120
SWIDTH 531 0
DWIDTH 6 0
BBX 6 5 0 0
BITMAP
EC
68
30
58
DC
ENDCHAR

STARTCHAR y
ENCODING 121
SWIDTH 521 0
DWIDTH 6 0
BBX 6 8 0 -3
BITMAP
EC
E8
68
30
30
20
60
40
ENDCHAR

STARTCHAR z
ENCODING 122
SWIDTH 510 0
DWIDTH 6 0
BBX 5 5 1 0
BITMAP
F8
B0
60
68
F8
ENDCHAR

STARTCHAR braceleft
ENCODING 123
SWIDTH 396 0
DWIDTH 5 0
BBX 4 11 0 -3
BITMAP
30
60
60
60
60
C0
40
60
60
60
30
ENDCHAR

STARTCHAR bar
ENCODING 124
SWIDTH 566 0
DWIDTH 8 0
BBX 2 11 3 -3
BITMAP
C0
C0
C0
C0
C0
C0
C0
C0
C0
C0
C0
ENDCHAR

STARTCHAR braceright
ENCODING 125
SWIDTH 396 0
DWIDTH 5 0
BBX 4 11 0 -3
BITMAP
C0
60
60
60
60
30
60
60
60
60
C0
ENDCHAR

STARTCHAR asciitilde
ENCODING 126
SWIDTH 521 0
DWIDTH 6 0
BBX 6 3 0 4
BITMAP
64
FC
98
ENDCHAR

STARTCHAR exclamdown
ENCODING 161
SWIDTH 313 0
DWIDTH 4 0
BBX 2 8 1 -3
BITMAP
C0
C0
00
80
80
C0
C0
C0
ENDCHAR

STARTCHAR cent
ENCODING 162
SWIDTH 490 0
DWIDTH 6 0
BBX 5 8 1 -2
BITMAP
08
70
D8
D0
E8
70
40
40
ENDCHAR

STARTCHAR sterling
ENCODING 163
SWIDTH 833 0
DWIDTH 10 0
BBX 10 11 0 -3
BITMAP
01C0
0240
0600
0C00
0C00
1800
7E00
10C0
3C40
4E40
8380
ENDCHAR

STARTCHAR currency
ENCODING 164
SWIDTH 667 0
DWIDTH 8 0
BBX 6 6 1 0
BITMAP
B4
78
CC
CC
78
B4
ENDCHAR

STARTCHAR yen
ENCODING 165
SWIDTH 500 0
DWIDTH 6 0
BBX 8 8 0 0
BITMAP
F7
62
FF
F7
18
18
18
3C
ENDCHAR

STARTCHAR brokenbar
ENCODING 166
SWIDTH 566 0
DWIDTH 8 0
BBX 2 11 3 -3
BITMAP
C0
C0
C0
C0
C0
00
C0
C0
C0
C0
C0
ENDCHAR

STARTCHAR section
ENCODING 167
SWIDTH 469 0
DWIDTH 6 0
BBX 6 11 0 -3
BITMAP
3C
4C
E0
A0
90
48
6C
34
14
98
F0
ENDCHAR

STARTCHAR dieresis
ENCODING 168
SWIDTH 333 0
DWIDTH 4 0
BBX 4 2 0 6
BITMAP
F0
F0
ENDCHAR

STARTCHAR copyright
ENCODING 169
SWIDTH 750 0
DWIDTH 9 0
BBX 9 8 0 0
BITMAP
3E00
7F00
B280
B080
B080
B180
7F00
3E00
ENDCHAR

STARTCHAR ordfeminine
ENCODING 170
SWIDTH 365 0
DWIDTH 4 0
BBX 4 4 0 4
BITMAP
E0
A0
E0
F0
ENDCHAR

STARTCHAR guillemotleft
ENCODING 171
SWIDTH 427 0
DWIDTH 5 0
BBX 4 4 1 1
BITMAP
A0
50
50
A0
ENDCHAR

STARTCHAR logicalnot
ENCODING 172
SWIDTH 667 0
DWIDTH 8 0
BBX 7 4 0 2
BITMAP
FE
02
02
02
ENDCHAR

STARTCHAR hyphen
ENCODING 173
SWIDTH 417 0
DWIDTH 5 0
BBX 4 2 1 2
BITMAP
F0
F0
ENDCHAR

STARTCHAR registered
ENCODING 174
SWIDTH 750 0
DWIDTH 9 0
BBX 9 8 0 0
BITMAP
3E00
7F00
B680
B680
BC80
B480
7F00
3E00
ENDCHAR

STARTCHAR macron
ENCODING 175
SWIDTH 333 0
DWIDTH 4 0
BBX 4 1 0 7
BITMAP
F0
ENDCHAR

STARTCHAR degree
ENCODING 176
SWIDTH 396 0
DWIDTH 5 0
BBX 4 4 0 4
BITMAP
60
90
90
60
ENDCHAR

STARTCHAR plusminus
ENCODING 177
SWIDTH 668 0
DWIDTH 8 0
BBX 7 9 0 -1
BITMAP
10
10
10
FE
10
10
10
00
FE
ENDCHAR

STARTCHAR twosuperior
ENCODING 178
SWIDTH 313 0
DWIDTH 4 0
BBX 3 5 -3 3
BITMAP
E0
A0
20
60
E0
ENDCHAR

STARTCHAR threesuperior
ENCODING 179
SWIDTH 302 0
DWIDTH 4 0
BBX 3 5 -3 3
BITMAP
60
A0
60
20
C0
ENDCHAR

STARTCHAR acute
ENCODING 180
SWIDTH 333 0
DWIDTH 4 0
BBX 3 2 1 6
BITMAP
60
80
ENDCHAR

STARTCHAR mu
ENCODING 181
SWIDTH 552 0
DWIDTH 7 0
BBX 7 9 0 -3
BITMAP
6C
6C
6C
6C
6E
76
40
C0
C0
ENDCHAR

STARTCHAR paragraph
ENCODING 182
SWIDTH 542 0
DWIDTH 7 0
BBX 7 11 0 -3
BITMAP
7E
F4
F4
F4
F4
74
14
14
14
14
14
ENDCHAR

STARTCHAR periodcentered
ENCODING 183
SWIDTH 313 0
DWIDTH 4 0
BBX 2 2 1 3
BITMAP
C0
C0
ENDCHAR

STARTCHAR cedilla
ENCODING 184
SWIDTH 333 0
DWIDTH 4 0
BBX 3 3 0 -3
BITMAP
20
60
E0
ENDCHAR

STARTCHAR onesuperior
ENCODING 185
SWIDTH 313 0
DWIDTH 4 0
BBX 3 5 -3 3
BITMAP
C0
40
40
40
E0
ENDCHAR

STARTCHAR ordmasculine
ENCODING 186
SWIDTH 375 0
DWIDTH 5 0
BBX 4 3 0 5
BITMAP
70
90
F0
ENDCHAR

STARTCHAR guillemotright
ENCODING 187
SWIDTH 427 0
DWIDTH 5 0
BBX 4 4 1 1
BITMAP
50
A0
A0
50
ENDCHAR

STARTCHAR onequarter
ENCODING 188
SWIDTH 823 0
DWIDTH 10 0
BBX 10 8 2 0
BITMAP
C100
4200
4600
4480
E980
1980
13C0
2080
ENDCHAR

STARTCHAR onehalf
ENCODING 189
SWIDTH 823 0
DWIDTH 10 0
BBX 9 8 2 0
BITMAP
C100
4200
4600
4780
EA80
1880
1180
2380
ENDCHAR

STARTCHAR threequarters
ENCODING 190
SWIDTH 823 0
DWIDTH 10 0
BBX 10 8 2 0
BITMAP
6100
A200
6600
2480
C980
1980
13C0
2080
ENDCHAR

STARTCHAR questiondown
ENCODING 191
SWIDTH 365 0
DWIDTH 4 0
BBX 3 9 1 -3
BITMAP
60
60
20
60
E0
80
80
E0
60
ENDCHAR

STARTCHAR Agrave
ENCODING 192
SWIDTH 740 0
DWIDTH 9 0
BBX 9 11 0 0
BITMAP
3000
0800
0000
1800
1C00
2C00
2E00
3E00
4600
4300
E780
ENDCHAR

STARTCHAR Aacute
ENCODING 193
SWIDTH 740 0
DWIDTH 9 0
BBX 9 11 0 0
BITMAP
0C00
1000
0000
1800
1C00
2C00
2E00
3E00
4600
4300
E780
ENDCHAR

STARTCHAR Acircumflex
ENCODING 194
SWIDTH 740 0
DWIDTH 9 0
BBX 9 11 0 0
BITMAP
1800
3400
0000
1800
1C00
2C00
2E00
3E00
4600
4300
E780
ENDCHAR

STARTCHAR Atilde
ENCODING 195
SWIDTH 740 0
DWIDTH 9 0
BBX 9 11 0 0
BITMAP
3C00
3C00
0000
1800
1C00
2C00
2E00
3E00
4600
4300
E780
ENDCHAR

STARTCHAR Adieresis
ENCODING 196
SWIDTH 740 0
DWIDTH 9 0
BBX 9 11 0 0
BITMAP
3C00
3C00
0000
1800
1C00
2C00
2E00
3E00
4600
4300
E780
ENDCHAR

STARTCHAR Aring
ENCODING 197
SWIDTH 740 0
DWIDTH 9 0
BBX 9 12 0 0
BITMAP
1C00
1400
1C00
0000
1800
1C00
2C00
2E00
3E00
4600
4300
E780
ENDCHAR

STARTCHAR AE
ENCODING 198
SWIDTH 896 0
DWIDTH 11 0
BBX 11 8 0 0
BITMAP
1FE0
0E20
1E00
17C0
3E40
2600
4620
EFE0
ENDCHAR

STARTCHAR Ccedilla
ENCODING 199
SWIDTH 740 0
DWIDTH 9 0
BBX 8 11 1 -3
BITMAP
1F
61
C1
C0
C0
C1
63
3F
08
18
38
ENDCHAR

STARTCHAR Egrave
ENCODING 200
SWIDTH 646 0
DWIDTH 8 0
BBX 7 11 0 0
BITMAP
30
08
00
FE
62
60
7E
62
60
62
FE
ENDCHAR

STARTCHAR Eacute
ENCODING 201
SWIDTH 646 0
DWIDTH 8 0
BBX 7 11 0 0
BITMAP
0C
10
00
FE
62
60
7E
62
60
62
FE
ENDCHAR

STARTCHAR Ecircumflex
ENCODING 202
SWIDTH 646 0
DWIDTH 8 0
BBX 7 11 0 0
BITMAP
18
34
00
FE
62
60
7E
62
60
62
FE
ENDCHAR

STARTCHAR Edieresis
ENCODING 203
SWIDTH 646 0
DWIDTH 8 0
BBX 7 11 0 0
BITMAP
3C
3C
00
FE
62
60
7E
62
60
62
FE
ENDCHAR

STARTCHAR Igrave
ENCODING 204
SWIDTH 365 0
DWIDTH 4 0
BBX 4 11 0 0
BITMAP
C0
20
00
F0
60
60
60
60
60
60
F0
ENDCHAR

STARTCHAR Iacute
ENCODING 205
SWIDTH 365 0
DWIDTH 4 0
BBX 4 11 0 0
BITMAP
30
40
00
F0
60
60
60
60
60
60
F0
ENDCHAR

STARTCHAR Icircumflex
ENCODING 206
SWIDTH 365 0
DWIDTH 4 0
BBX 4 11 0 0
BITMAP
60
D0
00
F0
60
60
60
60
60
60
F0
ENDCHAR

STARTCHAR Idieresis
ENCODING 207
SWIDTH 365 0
DWIDTH 4 0
BBX 4 11 0 0
BITMAP
F0
F0
00
F0
60
60
60
60
60
60
F0
ENDCHAR

STARTCHAR Eth
ENCODING 208
SWIDTH 823 0
DWIDTH 10 0
BBX 9 8 0 0
BITMAP
FE00
6300
6180
F980
6180
6180
6300
FE00
ENDCHAR

STARTCHAR Ntilde
ENCODING 209
SWIDTH 813 0
DWIDTH 10 0
BBX 9 11 0 0
BITMAP
3C00
3C00
0000
E380
7100
7900
5D00
4F00
4700
4300
E100
ENDCHAR

STARTCHAR Ograve
ENCODING 210
SWIDTH 844 0
DWIDTH 10 0
BBX 9 11 1 0
BITMAP
3000
0800
0000
3E00
6300
C180
C180
C180
C180
6300
3E00
ENDCHAR

STARTCHAR Oacute
ENCODING 211
SWIDTH 844 0
DWIDTH 10 0
BBX 9 11 1 0
BITMAP
0C00
1000
0000
3E00
6300
C180
C180
C180
C180
6300
3E00
ENDCHAR

STARTCHAR Ocircumflex
ENCODING 212
SWIDTH 844 0
DWIDTH 10 0
BBX 9 11 1 0
BITMAP
1800
3400
0000
3E00
6300
C180
C180
C180
C180
6300
3E00
ENDCHAR

STARTCHAR Otilde
ENCODING 213
SWIDTH 844 0
DWIDTH 10 0
BBX 9 11 1 0
BITMAP
3C00
3C00
0000
3E00
6300
C180
C180
C180
C180
6300
3E00
ENDCHAR

STARTCHAR Odieresis
ENCODING 214
SWIDTH 844 0
DWIDTH 10 0
BBX 9 11 1 0
BITMAP
3C00
3C00
0000
3E00
6300
C180
C180
C180
C180
6300
3E00
ENDCHAR

STARTCHAR multiply
ENCODING 215
SWIDTH 667 0
DWIDTH 8 0
BBX 6 5 1 1
BITMAP
CC
78
30
78
CC
ENDCHAR

STARTCHAR Oslash
ENCODING 216
SWIDTH 844 0
DWIDTH 10 0
BBX 9 8 1 0
BITMAP
3E80
6300
C380
C580
C980
D180
6300
7E00
ENDCHAR

STARTCHAR Ugrave
ENCODING 217
SWIDTH 771 0
DWIDTH 9 0
BBX 9 11 0 0
BITMAP
3000
0800
0000
F380
6100
6100
6100
6100
6100
6300
3E00
ENDCHAR

STARTCHAR Uacute
ENCODING 218
SWIDTH 771 0
DWIDTH 9 0
BBX 9 11 0 0
BITMAP
0C00
1000
0000
F380
6100
6100
6100
6100
6100
6300
3E00
ENDCHAR

STARTCHAR Ucircumflex
ENCODING 219
SWIDTH 771 0
DWIDTH 9 0
BBX 9 11 0 0
BITMAP
1800
3400
0000
F380
6100
6100
6100
6100
6100
6300
3E00
ENDCHAR

STARTCHAR Udieresis
ENCODING 220
SWIDTH 771 0
DWIDTH 9 0
BBX 9 11 0 0
BITMAP
3C00
3C00
0000
F380
6100
6100
6100
6100
6100
6300
3E00
ENDCHAR

STARTCHAR Yacute
ENCODING 221
SWIDTH 750 0
DWIDTH 9 0
BBX 9 11 0 0
BITMAP
0C00
1000
0000
FB80
7100
3B00
1A00
0C00
0C00
0C00
1E00
ENDCHAR

STARTCHAR Thorn
ENCODING 222
SWIDTH 646 0
DWIDTH 8 0
BBX 7 8 0 0
BITMAP
F0
7C
7E
66
66
66
7C
F0
ENDCHAR

STARTCHAR germandbls
ENCODING 223
SWIDTH 563 0
DWIDTH 7 0
BBX 7 8 0 0
BITMAP
3C
66
64
6C
66
66
66
FC
ENDCHAR

STARTCHAR agrave
ENCODING 224
SWIDTH 479 0
DWIDTH 6 0
BBX 6 8 0 0
BITMAP
60
10
00
70
D8
38
D8
FC
ENDCHAR

STARTCHAR aacute
ENCODING 225
SWIDTH 479 0
DWIDTH 6 0
BBX 6 8 0 0
BITMAP
18
20
00
70
D8
38
D8
FC
ENDCHAR

STARTCHAR acircumflex
ENCODING 226
SWIDTH 479 0
DWIDTH 6 0
BBX 6 8 0 0
BITMAP
30
68
00
70
D8
38
D8
FC
ENDCHAR

STARTCHAR atilde
ENCODING 227
SWIDTH 479 0
DWIDTH 6 0
BBX 6 8 0 0
BITMAP
78
78
00
70
D8
38
D8
FC
ENDCHAR

STARTCHAR adieresis
ENCODING 228
SWIDTH 479 0
DWIDTH 6 0
BBX 6 8 0 0
BITMAP
78
78
00
70
D8
38
D8
FC
ENDCHAR

STARTCHAR aring
ENCODING 229
SWIDTH 479 0
DWIDTH 6 0
BBX 6 9 0 0
BITMAP
70
50
70
00
70
D8
38
D8
FC
ENDCHAR

STARTCHAR ae
ENCODING 230
SWIDTH 698 0
DWIDTH 8 0
BBX 8 5 0 0
BITMAP
FE
1F
58
D9
EE
ENDCHAR

STARTCHAR ccedilla
ENCODING 231
SWIDTH 490 0
DWIDTH 6 0
BBX 5 8 1 -3
BITMAP
78
C8
C0
C8
70
10
30
70
ENDCHAR

STARTCHAR egrave
ENCODING 232
SWIDTH 479 0
DWIDTH 6 0
BBX 5 8 0 0
BITMAP
C0
20
00
78
F8
C0
C8
70
ENDCHAR

STARTCHAR eacute
ENCODING 233
SWIDTH 479 0
DWIDTH 6 0
BBX 5 8 0 0
BITMAP
30
40
00
78
F8
C0
C8
70
ENDCHAR

STARTCHAR ecircumflex
ENCODING 234
SWIDTH 479 0
DWIDTH 6 0
BBX 5 8 0 0
BITMAP
60
D0
00
78
F8
C0
C8
70
ENDCHAR

STARTCHAR edieresis
ENCODING 235
SWIDTH 479 0
DWIDTH 6 0
BBX 5 8 0 0
BITMAP
F0
F0
00
78
F8
C0
C8
70
ENDCHAR

STARTCHAR igrave
ENCODING 236
SWIDTH 292 0
DWIDTH 4 0
BBX 4 8 0 0
BITMAP
C0
20
00
E0
60
60
60
F0
ENDCHAR

STARTCHAR iacute
ENCODING 237
SWIDTH 292 0
DWIDTH 4 0
BBX 4 8 0 0
BITMAP
30
40
00
E0
60
60
60
F0
ENDCHAR

STARTCHAR icircumflex
ENCODING 238
SWIDTH 292 0
DWIDTH 4 0
BBX 4 8 0 0
BITMAP
60
D0
00
E0
60
60
60
F0
ENDCHAR

STARTCHAR idieresis
ENCODING 239
SWIDTH 292 0
DWIDTH 4 0
BBX 4 8 0 0
BITMAP
F0
F0
00
E0
60
60
60
F0
ENDCHAR

STARTCHAR eth
ENCODING 240
SWIDTH 563 0
DWIDTH 7 0
BBX 6 8 0 0
BITMAP
38
38
58
7C
CC
CC
CC
78
ENDCHAR

STARTCHAR ntilde
ENCODING 241
SWIDTH 573 0
DWIDTH 7 0
BBX 7 8 0 0
BITMAP
78
78
00
EC
7C
6C
6C
FE
ENDCHAR

STARTCHAR ograve
ENCODING 242
SWIDTH 573 0
DWIDTH 7 0
BBX 6 8 0 0
BITMAP
60
10
00
78
CC
CC
CC
78
ENDCHAR

STARTCHAR oacute
ENCODING 243
SWIDTH 573 0
DWIDTH 7 0
BBX 6 8 0 0
BITMAP
18
20
00
78
CC
CC
CC
78
ENDCHAR

STARTCHAR ocircumflex
ENCODING 244
SWIDTH 573 0
DWIDTH 7 0
BBX 6 8 0 0
BITMAP
30
68
00
78
CC
CC
CC
78
ENDCHAR

STARTCHAR otilde
ENCODING 245
SWIDTH 573 0
DWIDTH 7 0
BBX 6 8 0 0
BITMAP
78
78
00
78
CC
CC
CC
78
ENDCHAR

STARTCHAR odieresis
ENCODING 246
SWIDTH 573 0
DWIDTH 7 0
BBX 6 8 0 0
BITMAP
78
78
00
78
CC
CC
CC
78
ENDCHAR

STARTCHAR divide
ENCODING 247
SWIDTH 668 0
DWIDTH 8 0
BBX 8 7 0 1
BITMAP
18
18
00
FF
00
18
18
ENDCHAR

STARTCHAR oslash
ENCODING 248
SWIDTH 573 0
DWIDTH 7 0
BBX 7 5 0 0
BITMAP
7E
CC
DC
EC
78
ENDCHAR

STARTCHAR ugrave
ENCODING 249
SWIDTH 573 0
DWIDTH 7 0
BBX 6 8 0 0
BITMAP
60
10
00
F8
D8
D8
D8
FC
ENDCHAR

STARTCHAR uacute
ENCODING 250
SWIDTH 573 0
DWIDTH 7 0
BBX 6 8 0 0
BITMAP
18
20
00
F8
D8
D8
D8
FC
ENDCHAR

STARTCHAR ucircumflex
ENCODING 251
SWIDTH 573 0
DWIDTH 7 0
BBX 6 8 0 0
BITMAP
30
68
00
F8
D8
D8
D8
FC
ENDCHAR

STARTCHAR udieresis
ENCODING 252
SWIDTH 573 0
DWIDTH 7 0
BBX 6 8 0 0
BITMAP
78
78
00
F8
D8
D8
D8
FC
ENDCHAR

STARTCHAR yacute
ENCODING 253
SWIDTH 521 0
DWIDTH 6 0
BBX 6 11 0 -3
BITMAP
18
20
00
EC
E8
68
30
30
20
60
40
ENDCHAR

STARTCHAR thorn
ENCODING 254
SWIDTH 573 0
DWIDTH 7 0
BBX 7 11 0 -3
BITMAP
E0
60
60
7C
66
66
66
7C
60
60
F0
ENDCHAR

STARTCHAR ydieresis
ENCODING 255
SWIDTH 521 0
DWIDTH 6 0
BBX 6 11 0 -3
BITMAP
78
78
00
EC
E8
68
30
30
20
60
40
ENDCHAR
ENDFONT
